<?xml version="1.0" encoding="UTF-8"?>
<svg id="Layer_1" data-name="Layer 1" xmlns="http://www.w3.org/2000/svg" version="1.1" viewBox="0 0 1489.44 460.8">
  <defs>
    <style>
      .cls-1 {
        fill: #fbdeeb;
      }

      .cls-1, .cls-2, .cls-3, .cls-4, .cls-5, .cls-6 {
        stroke-width: 0px;
      }

      .cls-2 {
        fill: #f9c6dc;
      }

      .cls-3 {
        fill: #f8bfd8;
      }

      .cls-4 {
        fill: #231f20;
      }

      .cls-5 {
        fill: #fbd8e7;
      }

      .cls-6 {
        fill: #fad2e3;
      }
    </style>
  </defs>
  <path class="cls-3" d="M0,464.22V149.71C0,67.16,67.16,0,149.7,0s149.71,67.16,149.71,149.71v314.51H0Z"/>
  <path class="cls-2" d="M24,440.22V149.71c0-69.31,56.39-125.71,125.7-125.71s125.71,56.39,125.71,125.71v290.51H24Z"/>
  <path class="cls-6" d="M48,416.22V149.71c0-56.08,45.62-101.7,101.7-101.7s101.71,45.62,101.71,101.7v266.51H48Z"/>
  <path class="cls-5" d="M72,392.22v-242.51c0-42.84,34.86-77.7,77.7-77.7s77.7,34.86,77.7,77.7v242.51H72Z"/>
  <path class="cls-1" d="M96.01,368.21v-218.51c0-29.61,24.09-53.7,53.7-53.7s53.7,24.09,53.7,53.7v218.51h-107.4Z"/>
  <g>
    <path class="cls-4" d="M601.92,266.9c15.15,0,28.59,3.02,40.31,9.06,11.72,6.04,20.95,15.27,27.7,27.7,6.75,12.43,10.12,28.36,10.12,47.77v109.39h-55.4v-100.86c0-15.39-3.2-26.75-9.59-34.09-6.39-7.34-15.39-11.01-26.99-11.01-8.05,0-15.27,1.84-21.66,5.5-6.39,3.67-11.37,9.18-14.92,16.51-3.55,7.34-5.33,16.69-5.33,28.06v95.89h-55.4v-100.86c0-15.39-3.14-26.75-9.41-34.09-6.28-7.34-15.22-11.01-26.81-11.01-8.05,0-15.27,1.84-21.66,5.5-6.39,3.67-11.36,9.18-14.92,16.51-3.55,7.34-5.33,16.69-5.33,28.06v95.89h-55.4v-191.07h52.92v52.21l-9.94-15.27c6.63-13.02,16.04-22.91,28.23-29.66,12.19-6.75,26.1-10.12,41.73-10.12,17.52,0,32.85,4.44,45.99,13.32,13.14,8.88,21.84,22.44,26.1,40.67l-19.53-5.33c6.39-14.92,16.63-26.75,30.72-35.51,14.08-8.76,30.24-13.14,48.48-13.14Z"/>
    <path class="cls-4" d="M757.47,243.1c-10.18,0-18.47-2.96-24.86-8.88-6.39-5.92-9.59-13.26-9.59-22.02s3.2-16.1,9.59-22.02c6.39-5.92,14.68-8.88,24.86-8.88s18.47,2.79,24.86,8.35c6.39,5.57,9.59,12.73,9.59,21.49,0,9.23-3.14,16.87-9.41,22.91-6.28,6.04-14.62,9.06-25.04,9.06ZM729.77,460.8v-191.07h55.4v191.07h-55.4Z"/>
    <path class="cls-4" d="M836.67,460.8v-191.07h52.92v53.98l-7.46-15.63c5.68-13.5,14.79-23.73,27.35-30.72,12.55-6.98,27.82-10.48,45.81-10.48v51.14c-2.37-.23-4.5-.41-6.39-.53-1.9-.12-3.91-.18-6.04-.18-15.15,0-27.41,4.32-36.76,12.96-9.35,8.65-14.03,22.08-14.03,40.31v90.21h-55.4Z"/>
    <path class="cls-4" d="M988.32,460.8v-191.07h52.92v53.98l-7.46-15.63c5.68-13.5,14.79-23.73,27.35-30.72,12.55-6.98,27.82-10.48,45.81-10.48v51.14c-2.37-.23-4.5-.41-6.39-.53-1.9-.12-3.91-.18-6.04-.18-15.15,0-27.41,4.32-36.76,12.96-9.35,8.65-14.03,22.08-14.03,40.31v90.21h-55.4Z"/>
    <path class="cls-4" d="M1229.11,463.65c-20.37,0-38.42-4.26-54.16-12.78-15.75-8.52-28.18-20.18-37.29-34.98-9.12-14.79-13.67-31.66-13.67-50.61s4.56-36.16,13.67-50.96c9.11-14.79,21.54-26.4,37.29-34.8,15.74-8.4,33.79-12.61,54.16-12.61s38.12,4.21,53.98,12.61c15.86,8.41,28.29,19.95,37.29,34.63,9,14.68,13.5,31.73,13.5,51.14s-4.5,35.81-13.5,50.61c-9,14.8-21.43,26.46-37.29,34.98-15.87,8.52-33.86,12.78-53.98,12.78ZM1229.11,418.19c9.23,0,17.52-2.13,24.86-6.39,7.34-4.26,13.14-10.36,17.4-18.29,4.26-7.93,6.39-17.34,6.39-28.23s-2.13-20.6-6.39-28.41c-4.26-7.81-10.07-13.85-17.4-18.11-7.34-4.26-15.63-6.39-24.86-6.39s-17.52,2.13-24.86,6.39c-7.34,4.26-13.2,10.3-17.58,18.11-4.38,7.81-6.57,17.29-6.57,28.41s2.19,20.3,6.57,28.23c4.38,7.94,10.24,14.03,17.58,18.29,7.34,4.26,15.63,6.39,24.86,6.39Z"/>
    <path class="cls-4" d="M1370.82,460.8v-191.07h52.92v53.98l-7.46-15.63c5.68-13.5,14.79-23.73,27.35-30.72,12.55-6.98,27.82-10.48,45.81-10.48v51.14c-2.37-.23-4.5-.41-6.39-.53-1.9-.12-3.91-.18-6.04-.18-15.15,0-27.41,4.32-36.76,12.96-9.36,8.65-14.03,22.08-14.03,40.31v90.21h-55.4Z"/>
  </g>
</svg>